<svg xmlns="http://www.w3.org/2000/svg" viewBox="0 0 100 100" role="img" aria-label="evently">
  <defs>
    <linearGradient id="g" x1="0" y1="0" x2="1" y2="1">
      <stop offset="0" stop-color="#f6a13a"/>
      <stop offset="0.55" stop-color="#ef6a4d"/>
      <stop offset="1" stop-color="#c9438f"/>
    </linearGradient>
  </defs>
  <rect width="100" height="100" rx="22" fill="url(#g)"/>
  <path fill="#fff" d="M50 20c-11.6 0-21 9-21 20.5 0 10.3 7.7 18.9 17.9 20.7l-1.6 3.4c-.6 1.2.3 2.6 1.6 2.6h6.2c1.3 0 2.2-1.4 1.6-2.6l-1.6-3.4C63.3 59.4 71 50.8 71 40.5 71 29 61.6 20 50 20z"/>
  <path fill="none" stroke="#fff" stroke-width="2.4" stroke-linecap="round" d="M50 70c0 3.5 3 3.5 3 6.5s-3 3-3 6"/>
</svg>
